<svg width="113" height="113" viewBox="0 0 113 113" fill="none" xmlns="http://www.w3.org/2000/svg">
<path d="M54.8779 5.64494L62.737 14.7873L62.9923 15.0842L63.3418 14.9076L74.1013 9.4687L77.8635 20.9227L77.9857 21.2947L78.3762 21.2652L90.398 20.3578L89.4906 32.3797L89.4612 32.7701L89.8332 32.8923L101.287 36.6546L95.8483 47.4141L95.6717 47.7636L95.9686 48.0188L105.111 55.8779L95.9686 63.737L95.6717 63.9923L95.8483 64.3418L101.287 75.1013L89.8332 78.8635L89.4612 78.9857L89.4906 79.3762L90.398 91.398L78.3762 90.4906L77.9857 90.4612L77.8635 90.8332L74.1013 102.287L63.3418 96.8483L62.9923 96.6717L62.737 96.9686L54.8779 106.111L47.0188 96.9686L46.7636 96.6717L46.4141 96.8483L35.6546 102.287L31.8923 90.8332L31.7701 90.4612L31.3797 90.4906L19.3578 91.398L20.2652 79.3762L20.2947 78.9857L19.9227 78.8635L8.4687 75.1013L13.9076 64.3418L14.0842 63.9923L13.7873 63.737L4.64494 55.8779L13.7873 48.0188L14.0842 47.7636L13.9076 47.4141L8.4687 36.6546L19.9227 32.8923L20.2947 32.7701L20.2652 32.3797L19.3578 20.3578L31.3797 21.2652L31.7701 21.2947L31.8923 20.9227L35.6546 9.4687L46.4141 14.9076L46.7636 15.0842L47.0188 14.7873L54.8779 5.64494Z" stroke="white"/>
<path d="M44.7739 41.2534C44.4528 41.3767 42.5785 41.823 42.2481 41.9115C42.0908 43.2022 41.1555 48.3352 40.6356 50.9157C38.9393 48.9663 35.7009 45.1566 34.7892 43.9101C34.3987 44.052 32.5163 44.5378 32.0943 44.6322C33.0689 48.0608 34.478 53.1806 35.0026 55.5557L36.6891 55.1038C36.2351 53.5483 35.6739 51.5929 35.1521 49.6456C34.8353 48.4633 34.3371 46.8824 33.9461 45.7014L34.1107 45.62C36.0045 47.8892 38.6867 51.0838 40.3461 53.1735C40.8063 53.013 41.2583 52.8918 41.6675 52.8195C42.0436 50.2589 42.8192 46.2682 43.3824 43.1543L43.5563 43.1077C43.7908 44.3307 44.1999 46.0659 44.4993 47.2529C44.9512 48.9394 45.6174 51.4257 45.8867 52.6393L47.6775 52.1595C47.0082 50.0094 45.5861 44.6323 44.7739 41.2534ZM57.6009 44.9722C56.8928 42.3294 54.9431 40.8952 51.8483 41.7244C48.7535 42.5537 47.7648 44.7753 48.4729 47.4181C49.1717 50.0261 51.1341 51.4383 54.2289 50.609C57.3237 49.7798 58.2997 47.5802 57.6009 44.9722ZM55.9445 45.3974C56.4896 47.4316 55.6737 48.7684 53.8655 49.2529C52.0399 49.742 50.6824 48.9877 50.1374 46.9534C49.5876 44.9018 50.3861 43.5698 52.2117 43.0806C54.0199 42.5961 55.3948 43.3458 55.9445 45.3974ZM61.6225 39.0682C59.3622 39.6738 58.4815 41.0465 58.8589 42.4549C59.2875 44.0544 60.5993 44.4297 63.0524 44.1264C64.8215 43.9133 65.5533 44.0713 65.7676 44.8711C65.9493 45.5491 65.6069 46.2186 64.1638 46.6052C62.4947 47.0525 61.1528 46.7039 60.3839 45.6428C60.2554 45.789 59.3821 46.5634 59.2268 46.6796C60.4577 48.2132 62.1881 48.5509 64.4831 47.936C66.726 47.335 67.7343 46.0212 67.2964 44.3869C66.8771 42.8221 65.5072 42.3692 63.016 42.7386C61.4741 42.9654 60.6439 42.9269 60.3855 42.1017C60.169 41.4329 60.5509 40.7716 61.8896 40.4129C63.2806 40.0402 64.2282 40.308 64.9132 41.0562C64.9861 40.9808 65.8629 40.1495 66.0054 40.0554C64.8642 38.9263 63.6394 38.5278 61.6225 39.0682ZM69.9929 34.85C69.4586 35.0118 68.9891 35.1376 68.3238 35.2973C68.5042 35.9011 68.6999 36.6314 68.9095 37.4138C68.1051 37.6107 67.4792 37.7784 67.209 37.8135C67.3963 38.3038 67.5407 38.8427 67.6584 39.3516C67.8972 39.269 68.5185 39.0839 69.2835 38.8789C69.6621 40.3614 70.0233 41.8486 70.2935 42.8571C70.8619 44.9782 72.02 45.8233 74.2282 45.2316C75.1323 44.9893 75.8761 44.5664 76.5281 43.8699C76.1903 43.5132 75.7503 43.0534 75.4599 42.6654C75.0349 43.096 74.6527 43.478 73.9573 43.6643C72.7924 43.9764 72.1773 43.489 71.8092 42.1155C71.6415 41.4896 71.2362 39.9769 70.8436 38.4422C72.3736 38.0323 73.9605 37.6257 74.474 37.5254C74.3262 37.0432 74.1423 36.4962 74.0246 35.9873C73.5471 36.1525 72.0043 36.5845 70.4917 36.9898C70.2668 36.0811 70.0746 35.294 69.9929 34.85ZM30.7321 71.5521C30.1218 69.2744 30.9174 67.5145 32.743 67.0253C34.586 66.5315 35.5266 67.6771 35.9645 69.3115C36.5002 71.3109 36.0728 72.6367 34.2472 73.1259C32.4564 73.6058 31.1747 73.2038 30.7321 71.5521ZM27.7132 67.0314C28.6523 69.9104 29.7099 73.8572 30.8638 78.859C31.4931 78.6344 31.9324 78.5353 32.6325 78.3664C32.3648 77.5064 31.7337 75.2902 31.3238 73.7602L31.4014 73.7021C32.222 74.4699 33.4364 74.7594 35.0012 74.3401C37.3658 73.7066 38.37 71.8908 37.5594 68.8655C36.8466 66.2053 35.2993 64.8123 32.8304 65.4739C31.0918 65.9397 30.2573 67.2069 30.0761 68.8953L29.9892 68.9186C29.6944 67.749 29.4742 66.8577 29.4171 66.5748L27.7132 67.0314ZM47.9547 66.1919C47.2466 63.5491 45.2969 62.1148 42.2021 62.9441C39.1073 63.7734 38.1186 65.9949 38.8267 68.6377C39.5255 71.2457 41.4879 72.6579 44.5827 71.8287C47.6775 70.9994 48.6535 68.7999 47.9547 66.1919ZM46.2983 66.6171C46.8434 68.6513 46.0275 69.988 44.2193 70.4725C42.3937 70.9617 41.0362 70.2073 40.4912 68.1731C39.9414 66.1215 40.7399 64.7894 42.5655 64.3003C44.3737 63.8157 45.7486 64.5654 46.2983 66.6171ZM51.7523 65.9197C51.142 63.6421 51.9376 61.8822 53.7632 61.393C55.6062 60.8992 56.5468 62.0448 56.9847 63.6791C57.5204 65.6786 57.093 67.0044 55.2674 67.4936C53.4766 67.9734 52.1949 67.5714 51.7523 65.9197ZM48.7334 61.399C49.6725 64.2781 50.7301 68.2248 51.884 73.2266C52.5133 73.0021 52.9526 72.903 53.6527 72.734C53.385 71.874 52.7539 69.6578 52.344 68.1278L52.4216 68.0698C53.2423 68.8375 54.4566 69.1271 56.0214 68.7078C58.386 68.0742 59.3902 66.2584 58.5796 63.2331C57.8668 60.573 56.3196 59.18 53.8506 59.8415C52.112 60.3074 51.2775 61.5745 51.0963 63.263L51.0094 63.2863C50.7147 62.1167 50.4944 61.2253 50.4373 60.9425L48.7334 61.399ZM59.4137 58.5372C60.0926 61.0015 60.4318 62.4759 60.7533 63.6756C61.3496 65.9011 62.6171 67.015 64.773 66.4373C66.1466 66.0693 67.1888 64.9515 67.2233 62.8551L67.3103 62.8318C67.6678 64.0964 67.8613 64.9576 67.9684 65.3575L69.6375 64.9103C68.7366 61.9651 67.7324 58.0786 67.4116 56.3942C66.8297 56.5874 66.1864 56.7598 65.6034 56.8787C66.0782 58.3727 66.4161 59.773 66.6817 60.764C67.1861 62.716 66.2989 64.4818 64.8905 64.8591C63.6039 65.2039 62.7917 64.6761 62.3211 62.9201C62.0509 61.9117 61.4288 59.4508 61.135 58.076C60.5532 58.2692 59.9794 58.4229 59.4137 58.5372ZM69.0912 52.4781C69.9422 55.3062 71.538 61.4008 72.2185 64.2187L73.905 63.7668C73.027 60.6291 71.5045 54.7385 70.8299 52.0122L69.0912 52.4781ZM79.1645 61.2022C77.8779 61.5469 77.1228 61.302 76.8759 60.3805C76.6756 59.6329 77.0295 58.8672 78.7681 58.4013C79.4462 58.2196 80.2333 58.0274 81.039 57.9047C81.5095 59.6607 80.7989 60.7642 79.1645 61.2022ZM83.8348 61.1061C83.3556 59.8742 82.545 56.8489 82.2981 55.9274C81.7018 53.7019 80.0323 52.8262 77.7198 53.4458C75.39 54.0701 74.6301 55.6154 74.6703 57.2259C75.2453 57.1463 75.8122 57.1062 76.3931 57.1183C76.3002 56.0065 76.7792 55.1513 78.031 54.8159C79.5263 54.4153 80.3237 55.0961 80.6684 56.3827C80.715 56.5566 80.7582 56.7873 80.8327 57.0654C80.005 57.1754 79.109 57.3782 78.3092 57.5925C75.6838 58.296 74.9142 59.5272 75.3102 61.005C75.6596 62.309 76.8398 63.1668 79.0132 62.5844C80.1954 62.2676 81.2901 61.4153 81.5713 59.9609L81.6235 59.947C81.7607 60.3202 81.9213 60.7803 82.1831 61.5487L83.8348 61.1061ZM89.2117 50.4597C88.9148 50.4647 88.6099 50.5091 88.2622 50.6023C86.7843 50.9983 86.2535 52.1468 86.3792 54.4239L86.2922 54.4472C85.9102 53.0215 85.7049 51.9771 85.5664 51.5297C85.2755 51.6262 84.1801 51.9197 83.9494 51.9629C84.855 54.9255 85.8545 58.7946 86.2275 60.465C86.7572 60.2858 87.4052 60.1308 87.9836 59.9945C87.5401 58.548 87.2161 57.1999 86.9553 56.2262C86.4288 54.2615 87.1841 52.6988 88.349 52.3867C88.6967 52.2935 89.0758 52.2478 89.382 52.2776L89.2117 50.4597Z" fill="#F0E681"/>
<path d="M16.7679 77.6414C8.52558 89.7545 4.95421 99.1015 8.18014 102.327C14.0073 108.155 39.8067 91.8028 65.8048 65.8047C91.8029 39.8066 108.155 14.0072 102.327 8.18003C99.028 4.88052 89.325 8.69195 76.8084 17.3391" stroke="#40C397"/>
</svg>
