<svg width="44" height="44" viewBox="0 0 44 44" fill="none" xmlns="http://www.w3.org/2000/svg">
<path d="M19.0414 1.67694C20.8766 0.636716 23.1233 0.636715 24.9586 1.67693L31.57 5.42427L38.121 9.27624C39.9395 10.3455 41.0628 12.2912 41.0796 14.4007L41.14 22L41.0796 29.5993C41.0628 31.7088 39.9395 33.6545 38.121 34.7238L31.57 38.5757L24.9586 42.3231C23.1234 43.3633 20.8767 43.3633 19.0414 42.3231L12.43 38.5757L5.87901 34.7238C4.06053 33.6545 2.93718 31.7088 2.92041 29.5993L2.86 22L2.92041 14.4007C2.93718 12.2912 4.06053 10.3455 5.87901 9.27624L12.43 5.42427L19.0414 1.67694Z" fill="#333333"/>
<path fill-rule="evenodd" clip-rule="evenodd" d="M15 29.0001H18V18.0001H15V29.0001ZM14.75 14.9681C14.75 15.9421 15.534 16.7321 16.5 16.7321C17.467 16.7321 18.25 15.9421 18.25 14.9681C18.25 13.9941 17.466 13.2041 16.5 13.2041C15.534 13.2041 14.75 13.9941 14.75 14.9681ZM27 29.0001H30V22.2411C30 16.9881 24.396 17.1791 23 19.7651V18.0001H20V29.0001H23V23.3961C23 20.2831 27 20.0281 27 23.3961V29.0001Z" fill="white"/>
</svg>
