<svg width="44" height="44" viewBox="0 0 44 44" fill="none" xmlns="http://www.w3.org/2000/svg">
<path d="M19.0414 1.67694C20.8766 0.636716 23.1233 0.636715 24.9586 1.67693L31.57 5.42427L38.121 9.27624C39.9395 10.3455 41.0628 12.2912 41.0796 14.4007L41.14 22L41.0796 29.5993C41.0628 31.7088 39.9395 33.6545 38.121 34.7238L31.57 38.5757L24.9586 42.3231C23.1234 43.3633 20.8767 43.3633 19.0414 42.3231L12.43 38.5757L5.87901 34.7238C4.06053 33.6545 2.93718 31.7088 2.92041 29.5993L2.86 22L2.92041 14.4007C2.93718 12.2912 4.06053 10.3455 5.87901 9.27624L12.43 5.42427L19.0414 1.67694Z" fill="#333333"/>
<path d="M28.0777 15.8462L22.0944 20.6892C23.0277 19.8392 23.5522 18.5871 23.4018 17.2557C23.1123 14.697 20.1724 13.0115 17.8122 13.9113C16.2751 14.4977 15.3148 15.7428 14.7731 17.2021L14.7735 17.1989L12 17.4958L14.2804 19.2742C14.1668 20.1888 14.1726 21.1087 14.2672 21.9443C14.8754 27.3203 19.8499 31.1986 25.378 30.6069C27.5525 30.3742 29.4884 29.4842 31 28.1633C30.1422 27.511 28.2517 26.0638 27.3117 25.2933C31.9155 21.083 28.0777 15.8461 28.0777 15.8461L28.0777 15.8462ZM18.913 18.3817C18.3785 18.439 17.8974 18.0639 17.8385 17.544C17.7798 17.024 18.1656 16.5563 18.6999 16.4991C19.2344 16.442 19.7155 16.8169 19.7744 17.3372C19.8329 17.8569 19.4474 18.3244 18.913 18.3818V18.3817Z" fill="white"/>
</svg>
