<svg width="490" height="469" viewBox="0 0 490 469" fill="none" xmlns="http://www.w3.org/2000/svg">
<path opacity="0.8" d="M195.26 81.7027C202.885 58.2331 208.595 40.6616 213.828 28.1683C219.073 15.6452 223.787 8.36488 229.343 5.31026C239.093 -0.0497818 250.907 -0.0497818 260.657 5.31026C266.213 8.36488 270.927 15.6452 276.172 28.1683C281.405 40.6617 287.115 58.2332 294.74 81.7027L306.535 118.004L306.581 118.144C310.798 131.123 312.955 137.763 317.029 142.687C320.626 147.035 325.262 150.404 330.509 152.481C336.451 154.833 343.432 154.833 357.079 154.833H357.227H395.396C420.073 154.833 438.549 154.834 452.048 155.95C465.579 157.068 473.96 159.301 478.582 163.642C486.692 171.258 490.343 182.494 488.258 193.423C487.07 199.652 481.603 206.384 471.313 215.243C461.049 224.08 446.102 234.94 426.137 249.445L395.257 271.88L395.138 271.967C384.097 279.989 378.449 284.092 375.025 289.488C372.002 294.252 370.23 299.703 369.876 305.335C369.475 311.713 371.632 318.352 375.849 331.331L375.895 331.472L387.69 367.773C395.316 391.242 401.025 408.814 404.135 421.997C407.252 435.212 407.718 443.872 405.018 449.609C400.281 459.677 390.723 466.621 379.685 468.015C373.394 468.81 365.302 465.691 353.697 458.642C342.121 451.611 327.173 440.751 307.209 426.246L276.329 403.811L276.209 403.723C265.169 395.702 259.521 391.599 253.331 390.01C247.866 388.606 242.134 388.606 236.669 390.01C230.479 391.599 224.831 395.702 213.791 403.724L213.671 403.811L182.791 426.246C162.827 440.751 147.879 451.611 136.303 458.642C124.698 465.691 116.606 468.81 110.315 468.015C99.2767 466.621 89.7188 459.677 84.9815 449.609C82.2818 443.872 82.7476 435.212 85.8651 421.997C88.9753 408.814 94.6842 391.242 102.31 367.773L114.105 331.472L114.151 331.331C118.368 318.352 120.525 311.713 120.124 305.335C119.77 299.703 117.998 294.252 114.975 289.488C111.551 284.092 105.902 279.988 94.8618 271.967L94.7426 271.88L63.8628 249.445C43.8984 234.94 28.9514 224.08 18.6865 215.243C8.39715 206.384 2.92973 199.652 1.74162 193.423C-0.343201 182.494 3.30759 171.258 11.4182 163.642C16.0403 159.301 24.4209 157.068 37.9519 155.95C51.4508 154.834 69.9267 154.833 94.6041 154.833H132.773H132.921C146.568 154.833 153.549 154.833 159.491 152.481C164.738 150.404 169.374 147.035 172.971 142.687C177.045 137.763 179.202 131.123 183.419 118.144L183.465 118.004L195.26 81.7027Z" stroke="#F0E681"/>
</svg>
