<svg width="1440" height="79" viewBox="0 0 1440 79" fill="none" xmlns="http://www.w3.org/2000/svg">
<rect y="32" width="480" height="13" fill="#3784AB"/>
<rect x="480" y="32" width="480" height="13" fill="#F0E681"/>
<rect x="960" y="32" width="480" height="13" fill="#EB4949"/>
<mask id="path-4-inside-1_3801_255953" fill="white">
<path fill-rule="evenodd" clip-rule="evenodd" d="M514.539 58.8236C511.958 56.556 507.015 57.0322 505.181 59.9373C498.256 70.9067 486.027 78.1929 472.096 78.1929C450.504 78.1929 433 60.6888 433 39.0964C433 17.5041 450.504 0 472.096 0C486.027 0 498.256 7.28614 505.181 18.2555C507.015 21.1606 511.958 21.6368 514.539 19.3692C519.161 15.3083 525.222 12.8459 531.858 12.8459C546.356 12.8459 558.108 24.5987 558.108 39.0964C558.108 53.5941 546.356 65.3469 531.858 65.3469C525.222 65.3469 519.161 62.8845 514.539 58.8236Z"/>
</mask>
<path d="M514.539 58.8236L513.879 59.5748L514.539 58.8236ZM504.335 59.4035C497.586 70.0949 485.67 77.1929 472.096 77.1929V79.1929C486.385 79.1929 498.927 71.7185 506.027 60.4711L504.335 59.4035ZM472.096 77.1929C451.056 77.1929 434 60.1365 434 39.0964H432C432 61.2411 449.952 79.1929 472.096 79.1929V77.1929ZM434 39.0964C434 18.0564 451.056 1 472.096 1V-1C449.952 -1 432 16.9518 432 39.0964H434ZM472.096 1C485.67 1 497.586 8.09792 504.335 18.7893L506.027 17.7217C498.927 6.47436 486.385 -1 472.096 -1V1ZM515.199 20.1205C519.646 16.2137 525.474 13.8459 531.858 13.8459V11.8459C524.97 11.8459 518.676 14.4029 513.879 18.618L515.199 20.1205ZM531.858 13.8459C545.803 13.8459 557.108 25.151 557.108 39.0964H559.108C559.108 24.0464 546.908 11.8459 531.858 11.8459V13.8459ZM557.108 39.0964C557.108 53.0419 545.803 64.3469 531.858 64.3469V66.3469C546.908 66.3469 559.108 54.1464 559.108 39.0964H557.108ZM531.858 64.3469C525.474 64.3469 519.646 61.9791 515.199 58.0724L513.879 59.5748C518.676 63.7899 524.97 66.3469 531.858 66.3469V64.3469ZM504.335 18.7893C505.457 20.5667 507.469 21.5236 509.469 21.746C511.47 21.9685 513.652 21.4797 515.199 20.1205L513.879 18.618C512.845 19.5263 511.265 19.9333 509.69 19.7583C508.115 19.5832 506.738 18.8494 506.027 17.7217L504.335 18.7893ZM506.027 60.4711C506.738 59.3434 508.115 58.6097 509.69 58.4346C511.265 58.2596 512.845 58.6665 513.879 59.5748L515.199 58.0724C513.652 56.7131 511.47 56.2244 509.469 56.4468C507.469 56.6692 505.457 57.6262 504.335 59.4035L506.027 60.4711Z" fill="#D9D9D9" mask="url(#path-4-inside-1_3801_255953)"/>
<mask id="path-6-inside-2_3801_255953" fill="white">
<path fill-rule="evenodd" clip-rule="evenodd" d="M924.57 58.8236C927.151 56.556 932.095 57.0322 933.928 59.9373C940.853 70.9067 953.082 78.1929 967.013 78.1929C988.605 78.1929 1006.11 60.6888 1006.11 39.0964C1006.11 17.5041 988.605 0 967.013 0C953.082 0 940.853 7.28614 933.928 18.2555C932.095 21.1606 927.151 21.6368 924.57 19.3692C919.948 15.3083 913.888 12.8459 907.251 12.8459C892.754 12.8459 881.001 24.5987 881.001 39.0964C881.001 53.5941 892.754 65.3469 907.251 65.3469C913.888 65.3469 919.948 62.8845 924.57 58.8236Z"/>
</mask>
<path d="M924.57 58.8236L925.23 59.5748L924.57 58.8236ZM934.774 59.4035C941.523 70.0949 953.439 77.1929 967.013 77.1929V79.1929C952.725 79.1929 940.183 71.7185 933.083 60.4711L934.774 59.4035ZM967.013 77.1929C988.053 77.1929 1005.11 60.1365 1005.11 39.0964H1007.11C1007.11 61.2411 989.158 79.1929 967.013 79.1929V77.1929ZM1005.11 39.0964C1005.11 18.0564 988.053 1 967.013 1V-1C989.158 -1 1007.11 16.9518 1007.11 39.0964H1005.11ZM967.013 1C953.439 1 941.523 8.09792 934.774 18.7893L933.083 17.7217C940.183 6.47436 952.725 -1 967.013 -1V1ZM923.91 20.1205C919.464 16.2137 913.635 13.8459 907.251 13.8459V11.8459C914.14 11.8459 920.433 14.4029 925.23 18.618L923.91 20.1205ZM907.251 13.8459C893.306 13.8459 882.001 25.151 882.001 39.0964H880.001C880.001 24.0464 892.201 11.8459 907.251 11.8459V13.8459ZM882.001 39.0964C882.001 53.0419 893.306 64.3469 907.251 64.3469V66.3469C892.201 66.3469 880.001 54.1464 880.001 39.0964H882.001ZM907.251 64.3469C913.635 64.3469 919.464 61.9791 923.91 58.0724L925.23 59.5748C920.433 63.7899 914.14 66.3469 907.251 66.3469V64.3469ZM934.774 18.7893C933.652 20.5667 931.64 21.5236 929.64 21.746C927.639 21.9685 925.457 21.4797 923.91 20.1205L925.23 18.618C926.264 19.5263 927.845 19.9333 929.419 19.7583C930.994 19.5832 932.371 18.8494 933.083 17.7217L934.774 18.7893ZM933.083 60.4711C932.371 59.3434 930.994 58.6097 929.419 58.4346C927.845 58.2596 926.264 58.6665 925.23 59.5748L923.91 58.0724C925.457 56.7131 927.639 56.2244 929.64 56.4468C931.64 56.6692 933.652 57.6262 934.774 59.4035L933.083 60.4711Z" fill="#D9D9D9" mask="url(#path-6-inside-2_3801_255953)"/>
</svg>
