<svg width="82" height="33" viewBox="0 0 82 33" fill="none" xmlns="http://www.w3.org/2000/svg">
<path fill-rule="evenodd" clip-rule="evenodd" d="M2.19892 17.6955L2.22388 17.7104C-1.0524 23.6506 2.69123 32.2424 10.4137 32.2513L23.7122 32.2668V32.2657C30.301 32.2258 35.5888 24.5739 31.7385 17.6374L25.1525 5.77272C21.8804 -0.234339 12.7525 -1.21879 8.86106 5.75554L2.19892 17.6955ZM25.4285 10.4068C25.2146 1.55315 13.9293 -1.43418 9.65246 6.23077L4.97559 14.6127C5.1558 14.4814 5.34256 14.3543 5.53596 14.2316L8.56673 12.3098L15.7351 7.97359C16.5854 7.45926 17.6361 7.45692 18.4885 7.96747L25.4706 12.1494L25.4285 10.4068ZM26.3427 10.3831C26.3376 10.1723 26.3268 9.96463 26.3106 9.75995L30.9461 18.1108C35.2063 25.7857 27.0698 34.4311 19.5719 30.1964L18.0803 29.354L25.0957 25.1521C25.9481 24.6416 26.4715 23.6964 26.4673 22.6753L26.4317 14.0669L26.4003 12.7706L26.3988 12.7053L26.3427 10.3831ZM16.6627 28.5534L16.6622 27.7111C16.6593 22.9256 12.945 19.0408 8.34347 18.9873L8.34347 22.5247C8.34347 23.2054 8.69502 23.834 9.26469 24.1718L16.6627 28.5534ZM8.34347 18.0375V13.5631L9.03557 13.1243L16.1957 8.79309C16.3438 8.7035 16.5011 8.63721 16.6627 8.59423L16.6622 9.31373C16.6593 14.0992 12.945 17.984 8.34347 18.0375ZM24.6385 24.3306L17.5776 28.5597L17.5781 27.7111C17.5809 23.0508 21.1035 19.2447 25.5376 18.9993L25.5529 22.6794C25.5557 23.3601 25.2067 23.9902 24.6385 24.3306ZM25.5336 18.0253C21.1014 17.7778 17.5809 13.9727 17.5781 9.31373L17.5776 8.59596C17.7345 8.63831 17.8872 8.70265 18.0313 8.789L25.4975 13.2609L25.5173 14.0809L25.5336 18.0253ZM19.6732 31.3135L10.4148 31.3027C1.87769 31.2928 -1.27118 19.66 6.01287 15.041L7.42906 14.143L7.42905 22.5247C7.42906 23.5458 7.95638 24.4886 8.81088 24.9954L16.0149 29.2676L19.1346 31.0296C19.3139 31.1308 19.4935 31.2254 19.6732 31.3135ZM17.1202 24.7177C16.1999 21.7853 13.9665 19.4678 11.1401 18.5124C13.9665 17.557 16.1999 15.2395 17.1202 12.3071C18.0404 15.2395 20.2738 17.557 23.1002 18.5124C20.2738 19.4678 18.0404 21.7853 17.1202 24.7177Z" fill="white"/>
<path d="M60.3974 22.2958C60.3974 22.7823 59.6941 22.8924 58.5418 22.8924C57.3895 22.8924 56.9387 22.6221 56.8481 21.8459C56.3799 22.568 55.534 22.9658 54.3085 22.9658C52.4896 22.9658 50.9404 21.7204 50.9404 19.4091V16.3949C50.9404 15.5473 50.2197 15.3291 50.2197 14.8792V14.8078C50.2197 14.6089 50.3816 14.4293 50.634 14.3926L53.3181 14.0315C53.8403 13.9601 54.164 14.0682 54.164 14.3926L54.11 19.7354C54.0927 21.2164 54.4704 21.7744 55.2623 21.7744C55.929 21.7744 56.4512 21.0696 56.4512 19.969V16.3949C56.4512 15.5473 55.7305 15.3291 55.7305 14.8792V14.8078C55.7305 14.6089 55.8924 14.4293 56.1448 14.3926L58.8289 14.0315C59.3511 13.9601 59.6208 14.0682 59.6208 14.3926V20.7974C59.6208 22.2591 60.3954 21.5562 60.3954 22.2958H60.3974Z" fill="white"/>
<path d="M68.5804 15.7971C68.5804 16.6988 68.2374 17.4943 67.1931 17.4943C65.5533 17.4943 66.2932 15.7971 65.3915 15.7971C64.8153 15.7971 64.7248 16.7355 64.7248 17.5291V20.8869C64.7248 21.7172 65.6786 21.9334 65.6786 22.4393V22.5108C65.6786 22.727 65.4994 22.8545 65.247 22.8545H61.374C61.1216 22.8545 60.9424 22.729 60.9424 22.5108V22.4393C60.9424 21.9334 61.663 21.7172 61.663 20.8869V17.2954C61.663 16.4478 60.7979 16.3744 60.7979 15.8511V15.7971C60.7979 15.5808 60.9424 15.4186 61.2121 15.2738L63.7517 14.0824C64.2199 13.8662 64.4011 14.1191 64.4011 14.4802V15.7971C64.798 14.6424 65.6439 14.0091 66.8867 14.0091C67.9503 14.0091 68.5804 14.7853 68.5804 15.7971Z" fill="white"/>
<path d="M78.3962 22.2992C78.3962 22.7684 77.3519 22.8959 76.3615 22.8959C75.2805 22.8959 74.7583 22.6796 74.6138 22.0289C74.2361 22.5522 73.5155 22.9673 72.3266 22.9673C70.3998 22.9673 68.9219 22.083 68.9219 20.2235C68.9219 18.3641 70.4537 17.4623 72.1648 17.4623C72.922 17.4623 73.5348 17.6419 73.9837 17.9142V17.8601C73.7679 15.7303 73.6407 14.8093 72.7043 14.8093C71.4615 14.8093 71.9663 17.2287 70.3632 17.2287C69.6059 17.2287 69.103 16.7595 69.103 16.0547C69.103 14.5737 70.868 13.9423 72.7062 13.9423C75.1206 13.9423 76.795 15.3499 77.084 17.5898L77.481 20.8202C77.6428 22.1023 78.4001 21.7953 78.4001 22.3012L78.3962 22.2992ZM74.2535 20.7468L74.1822 19.9165C74.0569 18.8333 73.5868 18.4181 73.0646 18.4181C72.5424 18.4181 72.1455 18.9047 72.1455 19.6462C72.1455 20.9283 72.5771 22.0463 73.317 22.0463C73.9124 22.0463 74.2535 21.3608 74.2535 20.7468Z" fill="white"/>
<path fill-rule="evenodd" clip-rule="evenodd" d="M38.3154 22.5534V22.6248C38.3154 22.8411 38.4773 22.9685 38.747 22.9685H43.1441C43.3965 22.9685 43.5584 22.843 43.5584 22.6248V22.5534C43.5584 22.1903 43.0112 21.9779 42.8088 21.5783C42.674 21.3137 42.8782 21.0009 43.175 21.0009H46.414C46.7107 21.0009 46.915 21.3137 46.7801 21.5783C46.5778 21.976 46.0305 22.1903 46.0305 22.5514V22.6229C46.0305 22.8391 46.1924 22.9666 46.4622 22.9666H50.7436C51.0134 22.9666 51.1752 22.8411 51.1752 22.6229V22.5514C51.1752 22.0455 50.5086 21.9567 50.1309 20.999C50.1309 20.999 46.4699 11.3561 46.3176 11.0163C46.3176 11.0163 46.0132 10.1493 45.3484 10.1493H44.5738C43.9438 10.1493 43.7183 10.4196 43.4659 11.0163L39.3598 21.0009C38.9821 21.9393 38.3154 22.0475 38.3154 22.5534ZM43.9546 17.5447C43.9546 18.1005 42.604 18.2816 42.604 18.8868H42.6019C42.6019 19.1771 42.9928 19.3644 43.4184 19.3644H46.0726C46.4982 19.3644 46.8891 19.1771 46.8891 18.8868C46.8891 18.2796 45.5385 18.1005 45.5385 17.5447C45.5385 16.9889 46.4327 17.0444 46.4327 16.3569C46.4327 15.7805 45.3727 16.0357 45.3727 15.4223C45.3727 15.1712 45.4382 14.9941 45.4382 14.813C45.4382 14.393 45.1885 14.1007 44.7465 14.1007C44.3045 14.1007 44.0548 14.393 44.0548 14.813C44.0548 14.9941 44.1203 15.1712 44.1203 15.4223C44.1203 16.0357 43.0603 15.7805 43.0603 16.3569C43.0603 17.0444 43.9546 16.9889 43.9546 17.5447Z" fill="white"/>
<path d="M81.2024 21.5542C80.9777 21.7794 80.7068 21.893 80.3898 21.893C80.0729 21.893 79.8001 21.7794 79.5734 21.5542C79.3467 21.3289 79.2334 21.0556 79.2334 20.738C79.2334 20.4203 79.3467 20.1489 79.5734 19.9237C79.8001 19.6984 80.071 19.5868 80.3898 19.5868C80.7087 19.5868 80.9777 19.6984 81.2024 19.9237C81.4272 20.1489 81.5386 20.4203 81.5386 20.738C81.5386 21.0556 81.4272 21.3289 81.2024 21.5542ZM80.3898 21.6947C80.6396 21.6947 80.8528 21.6004 81.0295 21.4117C81.2082 21.2231 81.2966 20.9978 81.2966 20.738C81.2966 20.4781 81.2082 20.2529 81.0295 20.0642C80.8509 19.8775 80.6377 19.7831 80.3898 19.7831C80.142 19.7831 79.925 19.8775 79.7463 20.0642C79.5677 20.2509 79.4793 20.4762 79.4793 20.738C79.4793 20.9998 79.5677 21.2288 79.7444 21.4156C79.9211 21.6023 80.1363 21.6966 80.3898 21.6966V21.6947ZM80.4014 21.3809C80.217 21.3809 80.0614 21.3155 79.9326 21.1865C79.8059 21.0575 79.7405 20.9035 79.7405 20.7283C79.7405 20.5532 79.8039 20.3934 79.9288 20.2721C80.0537 20.1508 80.2131 20.0912 80.4052 20.0931C80.5589 20.095 80.6914 20.1335 80.8029 20.2086C80.9143 20.2837 80.97 20.3741 80.97 20.4781C80.97 20.5166 80.9546 20.5493 80.9239 20.5743C80.8931 20.6013 80.8509 20.6148 80.799 20.6148C80.7529 20.6148 80.7145 20.6013 80.6818 20.5724C80.6492 20.5455 80.6242 20.5127 80.6069 20.4742C80.5896 20.4357 80.5704 20.3972 80.5531 20.3587C80.5358 20.3202 80.5109 20.2856 80.4801 20.2586C80.4494 20.2317 80.4129 20.2163 80.3687 20.2163C80.288 20.2163 80.2285 20.2509 80.1881 20.3183C80.1478 20.3876 80.1267 20.4781 80.1267 20.5897C80.1267 20.7322 80.1632 20.8477 80.2342 20.9362C80.3072 21.0248 80.411 21.0691 80.5454 21.0691C80.6799 21.0691 80.7933 21.0094 80.8643 20.8881C80.8797 20.8669 80.9008 20.8631 80.9296 20.8746C80.9585 20.8862 80.9719 20.9054 80.97 20.9343C80.9604 21.0614 80.9047 21.1672 80.8029 21.25C80.701 21.3328 80.5666 21.3751 80.3994 21.3751L80.4014 21.3809Z" fill="white"/>
</svg>
