<svg width="120" height="120" viewBox="0 0 120 120" fill="none" xmlns="http://www.w3.org/2000/svg">
<path d="M62.8263 26.356L36.371 35.6675C27.8346 38.6721 23.3516 48.0271 26.3557 56.5622L35.6673 83.0175C38.6719 91.5539 48.0269 96.0369 56.5632 93.0323L83.0161 83.7216C91.5524 80.717 96.0367 71.3616 93.0321 62.8253L83.721 36.3712C80.7164 27.8349 71.3626 23.3514 62.8263 26.356Z" stroke="white" stroke-miterlimit="10"/>
<path d="M64.5682 73.5414C72.2157 70.8497 76.2332 62.4681 73.5415 54.8206C70.8498 47.1731 62.4682 43.1556 54.8207 45.8473C47.1732 48.5391 43.1557 56.9206 45.8474 64.5681C48.5391 72.2156 56.9207 76.2331 64.5682 73.5414Z" stroke="white" stroke-miterlimit="10"/>
<path d="M73.0855 36.0842C73.5705 37.4622 72.8466 38.9726 71.4685 39.4577C70.0904 39.9427 68.58 39.2188 68.095 37.8407C67.61 36.4626 68.3339 34.9522 69.712 34.4672C71.0901 33.9821 72.6004 34.7061 73.0855 36.0842Z" stroke="white"/>
</svg>
