<svg width="55" height="55" viewBox="0 0 55 55" fill="none" xmlns="http://www.w3.org/2000/svg">
<path d="M31.5471 11.1291L17.7017 13.7231C13.2341 14.5601 10.2918 18.86 11.1287 23.3269L13.7227 37.1723C14.5597 41.6398 18.8596 44.5822 23.3271 43.7452L37.1713 41.1514C41.6388 40.3144 44.5818 36.0143 43.7448 31.5468L41.1509 17.7021C40.3138 13.2345 36.0146 10.2921 31.5471 11.1291Z" stroke="white" stroke-miterlimit="10"/>
<path d="M33.3922 21.1612L27.4089 26.0043C28.3421 25.1542 28.8666 23.9022 28.7163 22.5708C28.4267 20.0121 25.4868 18.3266 23.1267 19.2264C21.5896 19.8128 20.6292 21.0579 20.0875 22.5172L17.3145 22.8109L19.5948 24.5892C19.4813 25.5038 19.4871 26.4238 19.5816 27.2593C20.1899 32.6353 25.1643 36.5137 30.6924 35.9219C32.8669 35.6893 34.8029 34.7993 36.3145 33.4784C35.4566 32.826 33.5661 31.3788 32.6261 30.6084C37.23 26.3981 33.3922 21.1612 33.3922 21.1612ZM24.2274 23.6968C23.6929 23.7541 23.2118 23.379 23.153 22.8591C23.0943 22.339 23.48 21.8714 24.0144 21.8141C24.5488 21.7571 25.03 22.132 25.0888 22.6523C25.1474 23.172 24.7619 23.6395 24.2274 23.6968Z" stroke="white"/>
</svg>
