<svg width="84" height="84" viewBox="0 0 84 84" fill="none" xmlns="http://www.w3.org/2000/svg">
<g clip-path="url(#clip0_3443_255687)">
<path d="M58.873 26.6883L41.3525 19.1076C35.6992 16.6615 29.1343 19.2618 26.6886 24.9143L19.1079 42.4348C16.6618 48.0881 19.2621 54.653 24.9154 57.099L42.4343 64.679C48.0876 67.1251 54.6533 64.5252 57.0994 58.8718L64.6797 41.3522C67.1258 35.6988 64.5263 29.1344 58.873 26.6883Z" stroke="white" stroke-miterlimit="10"/>
<path d="M54.1209 33.6942C54.2141 33.4788 54.2218 33.237 54.1423 33.0218C54.0628 32.8066 53.9026 32.6357 53.6969 32.5467L49.8202 30.8694C47.9122 29.9229 45.6931 29.8074 43.6478 30.5481C41.6026 31.2889 39.8974 32.8256 38.9049 34.8226L37.0077 39.2074L33.131 37.53C32.9253 37.441 32.6911 37.4413 32.4798 37.5306C32.2685 37.62 32.0975 37.7912 32.0043 38.0065L30.1774 42.2289C30.0842 42.4443 30.0765 42.6861 30.156 42.9013C30.2356 43.1165 30.3957 43.2874 30.6014 43.3764L34.4781 45.0537L28.7159 58.3712C28.6227 58.5866 28.615 58.8285 28.6946 59.0437C28.7741 59.2589 28.9343 59.4297 29.1399 59.5187L33.792 61.5315C33.9976 61.6205 34.2318 61.6203 34.4431 61.5309C34.6544 61.4416 34.8254 61.2704 34.9186 61.055L40.6808 47.7375L44.7436 49.4954C44.9149 49.5726 45.1082 49.5877 45.2929 49.5384C45.4776 49.4892 45.6431 49.3783 45.7634 49.2233L48.7068 45.484C48.7896 45.3773 48.8482 45.2533 48.878 45.1215C48.9079 44.9897 48.9083 44.8536 48.8791 44.7236C48.85 44.5937 48.7921 44.4734 48.71 44.372C48.6278 44.2706 48.5235 44.1908 48.4052 44.1388L43.2104 41.8911L45.1076 37.5064C45.3201 37.1211 45.6615 36.8266 46.0652 36.6804C46.4688 36.5342 46.9058 36.5468 47.2907 36.7157L51.1674 38.3931C51.373 38.4821 51.6072 38.4818 51.8185 38.3925C52.0298 38.3031 52.2008 38.1319 52.294 37.9166L54.1209 33.6942Z" stroke="white"/>
</g>
<defs>
<clipPath id="clip0_3443_255687">
<rect width="63.7224" height="63.7224" fill="white" transform="translate(25.3047) rotate(23.397)"/>
</clipPath>
</defs>
</svg>
