<svg width="42" height="35" viewBox="0 0 42 35" fill="none" xmlns="http://www.w3.org/2000/svg">
<circle cx="17.5" cy="17.5" r="17" stroke="white"/>
<circle cx="24.5" cy="17.5" r="17" stroke="white"/>
<path d="M25.3466 17.3654C25.3466 22.1286 24.8072 26.4226 23.9456 29.5102C23.5138 31.0574 23.0088 32.2733 22.4694 33.0908C21.917 33.9281 21.4103 34.2308 21.0005 34.2308C20.5906 34.2308 20.0839 33.9281 19.5315 33.0908C18.9921 32.2733 18.4871 31.0574 18.0553 29.5102C17.1937 26.4226 16.6543 22.1286 16.6543 17.3654C16.6543 12.6021 17.1937 8.30814 18.0553 5.2206C18.4871 3.67334 18.9921 2.45746 19.5315 1.64002C20.0839 0.802714 20.5906 0.5 21.0005 0.5C21.4103 0.5 21.917 0.802714 22.4694 1.64002C23.0088 2.45746 23.5138 3.67334 23.9456 5.2206C24.8072 8.30814 25.3466 12.6021 25.3466 17.3654Z" stroke="white"/>
<path d="M41.5 17.5C41.5 20.1081 39.3727 22.6039 35.6256 24.4774C31.9084 26.336 26.7382 27.5 21 27.5C15.2618 27.5 10.0916 26.336 6.37436 24.4774C2.62726 22.6039 0.5 20.1081 0.5 17.5C0.5 14.8919 2.62726 12.3961 6.37436 10.5226C10.0916 8.664 15.2618 7.5 21 7.5C26.7382 7.5 31.9084 8.664 35.6256 10.5226C39.3727 12.3961 41.5 14.8919 41.5 17.5Z" stroke="white"/>
</svg>
